<?xml version="1.0" encoding="utf-8"?>
<!-- Generator: Adobe Illustrator 26.3.1, SVG Export Plug-In . SVG Version: 6.00 Build 0)  -->
<svg version="1.1" id="Layer_1" xmlns="http://www.w3.org/2000/svg" xmlns:xlink="http://www.w3.org/1999/xlink" x="0px" y="0px"
	 viewBox="0 0 738.12 693.23" style="enable-background:new 0 0 738.12 693.23;" xml:space="preserve">
<style type="text/css">
	.st0{fill:#1D3D59;}
	.st1{fill:#5276AC;}
	.st2{fill:#608DD0;}
	.st3{fill:#D2E9ED;}
	.st4{fill:#FFC88B;}
	.st5{fill:#FF8C00;}
	.st6{fill:#FFFFFF;}
	.st7{fill:#210B04;}
	.st8{fill:#FF5454;}
	.st9{fill:#E52B07;}
</style>
<g id="_x35_">
	<path class="st0" d="M687.07,354.15c-0.71,5.89-1.73,11.69-2.84,17.38c-4.98,25.51-13.01,49.79-23.58,72.65
		c-74.99,163.8-274.36,258.41-357.99,236.26c-6.71-1.63-12.6-4.17-17.68-7.42c-8.84-5.79-8.33-9.45-20.32-17.78
		c-53.65-37.19-116.55-0.41-165.73,6.1c-3.35,0.51-6.71,0.81-9.96,0.92c-0.3,0.1-0.71,0.1-1.02,0.1
		c-9.55,0.41-18.49-0.92-26.52-4.57C28.19,642.54,8.27,584.21,7.15,510.44C5.94,435.85,23.92,345.92,66.5,268.19
		c40.24-73.16,107.92-145.61,185.25-195.71c24.69-16.06,50.5-29.77,76.62-40.55c75.81-31.3,154.76-37.29,222.54-0.81
		C658.82,89.14,703.63,235.98,687.07,354.15z"/>
	<path class="st1" d="M684.22,371.53c-4.98,25.51-13.01,49.79-23.58,72.65c-14.23,1.73-28.35,1.12-42.07-2.54
		c-27.94-7.42-42.48-24.29-85.26-29.47c-43.19-5.18-54.97,8.84-86.37,8.43c-87.49-0.91-147.14-110.96-199.88-208.31
		c-10.67-19.71-21.03-42.37-13.52-64.32c6.81-20.12,23.07-23.27,27.03-42.37c2.84-13.41-2.64-23.78-8.84-33.13
		c96.53-62.6,208.01-90.44,299.16-41.36C664.2,91.99,707.9,250.81,684.22,371.53z"/>
	<path class="st2" d="M687.07,354.15c-11.18,8.23-23.78,13.92-36.89,15.65c-19.82,2.74-20.83-5.89-75.09-22.05
		c-59.14-17.58-68.08-10.36-96.03-27.03c-23.57-14.13-17.07-19.21-53.45-46.13c-39.02-28.96-50.91-26.42-59.14-43.9
		c-13.82-28.96,12.91-49.39-0.81-75.91c-14.02-27.13-48.98-19.81-60.97-44.1c-14.43-28.96,19-72.55,23.68-78.75
		c16.36-6.81,32.92-12.4,49.38-16.56C437.7,0.02,497.76,2.56,550.9,31.12c71.94,38.72,115.84,116.86,132.2,199.68
		C691.33,272.15,692.55,314.73,687.07,354.15z"/>
	<path class="st3" d="M683.1,230.79c-12.7-4.78-27.23-9.75-46.03-4.06c-17.27,5.28-17.68,13.41-34.35,15.24
		c-26.93,2.95-52.23-15.45-57.11-19c-13.62-9.96-14.53-15.65-26.73-20.32c-13.41-5.18-21.85-1.93-34.85-2.44
		c-30.28-1.12-52.84-21.14-57.92-25.61c-32.21-28.55-35.26-71.03-35.57-74.89c-0.61-11.59,1.22-17.07-1.22-31.81
		c-4.17-24.79-13.31-32.92-14.02-41.87c-0.2-3.25,0.61-6.81,2.44-10.67C437.7,0.02,497.76,2.56,550.9,31.12
		C622.84,69.83,666.74,147.98,683.1,230.79z"/>
	<path class="st4" d="M145.35,521.92c0,6.5-0.71,16.06-4.37,26.83c-2.54,7.62-4.67,10.26-8.64,18.6
		c-9.25,19.31-6.4,23.88-12.8,36.89c-8.74,17.58-16.36,14.23-24.9,29.57c-5.89,10.67-5.69,18.39-5.69,28.45
		c-0.3,0.1-0.71,0.1-1.02,0.1c-3.56,0.1-7.01,0.1-10.36-0.31c-5.69-0.61-11.08-1.93-16.16-4.27
		c-31.5-14.43-51.11-67.68-53.96-136.17c-0.1-3.66-0.2-7.42-0.31-11.18c6-3.46,9.04-5.79,10.47-7.62c0.1-0.1,0.31-0.41,0.61-0.81
		c1.63-1.93,5.08-5.89,10.37-9.75c6.71-5.08,11.08-6.2,22.05-10.67c20.32-8.33,21.03-11.08,33.84-14.53
		c9.25-2.54,9.45-1.32,18.39-3.46c26.42-6.2,34.85-19.31,41.76-16.67C151.25,449.47,154.9,466.03,145.35,521.92z"/>
	<path class="st4" d="M302.65,680.44c-6.71-1.63-12.6-4.17-17.68-7.42c-8.84-5.79-8.33-9.45-20.32-17.78
		c-1.02-0.71-2.13-1.42-3.15-2.03c-46.23-29.47-98.97-6.1-143.79,4.57c-6.4,1.53-12.7,2.74-18.8,3.56
		c-1.02-5.08-0.81-9.96,0.71-14.23c5.08-13.92,23.47-14.73,26.22-30.89c1.02-6.2-1.32-8.33,0.41-16.87
		c2.13-10.77,7.82-17.68,9.76-20.32c6.1-8.33,11.89-23.78,10.16-55.48c6.4,5.79,12.91,11.69,19.41,17.48
		c5.79,5.28,11.69,10.57,17.58,15.95c7.93,7.11,15.95,14.23,23.88,21.44c-1.42,13.62-0.81,31.7,10.67,42.98
		c6.81,6.61,14.53,8.13,20.53,9.65C272.58,640.3,305.7,670.38,302.65,680.44z"/>
	<path class="st5" d="M119.24,545.5c-0.91,4.06-2.34,12.09-7.62,21.24c-3.45,5.79-4.98,6.1-6.5,10.26
		c-3.66,9.96,2.34,15.34,1.42,24.39c-1.32,13.01-14.43,12.09-22.86,28.45c-7.11,13.52-3.66,25.1-6.1,32.21
		c-5.69-0.61-11.08-1.93-16.16-4.27c-31.5-14.43-51.11-67.68-53.96-136.17c7.01-10.77,15.45-18.29,23.27-18.39
		c2.84-0.1,5.79,0.92,10.57-0.41c9.76-2.74,12.3-10.57,20.32-16.56c7.52-5.69,14.63-5.69,24.59-7.21
		c38.21-5.69,52.54-23.17,59.24-16.87C155.82,471.72,125.54,516.94,119.24,545.5z"/>
	<path class="st5" d="M261.5,653.21c-46.23-29.47-98.97-6.1-143.79,4.57c-1.83-4.17,6.1-8.13,13.72-22.46
		c6.2-11.48,5.39-16.77,10.67-37.29c3.66-14.43,7.11-27.54,13.92-41.05c2.74-5.49,6.1-10.97,9.55-15.95
		c8.54-12.3,17.78-21.34,21.44-19.61c4.17,2.03-1.02,18.09-3.86,35.56c-1.32,8.13-2.13,16.56-1.32,24.08
		c0.81,7.21,3.25,14.13,0.3,23.17c-1.02,2.95-2.64,6.5-1.12,8.23c1.93,2.13,6.5-1.12,11.79,0.41c4.88,1.42,6.81,5.89,8.94,8.84
		c9.35,13.11,26.73,5.59,49.59,20.83C255.81,645.49,262.41,649.96,261.5,653.21z"/>
	<g>
		
			<rect x="192.84" y="355.88" transform="matrix(0.7425 0.6698 -0.6698 0.7425 341.9935 -55.389)" class="st6" width="100.4" height="122.52"/>
		<path class="st6" d="M137.85,493.74L45.24,410.2c-2.24-2.02-2.41-5.46-0.4-7.7l30.83-34.17l96.66,87.19L137.85,493.74z"/>
		<path class="st6" d="M180.17,531.93l59.33,53.52c20.63,18.61,52.43,16.96,71.03-3.67l0.78-0.87l-96.66-87.19L180.17,531.93z"/>
		<path class="st6" d="M434.72,292.62l-140.2,155.41l-87.59-79.01l140.2-155.41c6.84-7.58,14.19-14.61,22-21.13
			c29.01-24.34,64.17-40.75,101.85-47.36c2.34-0.46,4.63-0.86,6.97-1.23c6.97-1.23,13.19,4.38,12.69,11.44l-0.5,7.06
			c-2.71,38.16-15.43,74.82-36.66,106.18C447.84,277.05,441.55,285.04,434.72,292.62z"/>
		<g>
			<path class="st6" d="M166.37,473.66L39.6,359.3c13.91-11.19,36.06-26.05,65.95-33.86c44.15-11.54,59.84,4.15,106.32-5.52
				c53.48-11.14,80.29-41.82,89.46-33.12c4.82,4.58,3.63,18.96-21.74,61.36C241.85,389.99,204.11,431.83,166.37,473.66z"/>
			<path class="st6" d="M194.59,499.12l126.77,114.36c9.7-14.99,22.21-38.54,26.92-69.08c6.95-45.1-10.28-59.1-5.42-106.33
				c5.59-54.34,33.36-84.16,23.76-92.39c-5.05-4.32-19.23-1.67-58.8,27.93C270.07,415.45,232.33,457.28,194.59,499.12z"/>
		</g>
		<g>
			<g>
				<path class="st3" d="M147.4,516.49l-47.17-42.55l87.95-97.5c15.21-16.86,41.22-18.2,58.08-2.99c9.19,8.29,9.92,22.46,1.63,31.64
					L147.4,516.49z"/>
				<path class="st3" d="M145.37,521.92l-60.86-54.9c11.13-4.22,22.26-8.44,33.38-12.66c15.09,14.89,30.18,29.77,45.27,44.66
					C157.24,506.65,151.3,514.29,145.37,521.92z"/>
			</g>
			<g>
				<path class="st7" d="M163.46,496.68c0.32,0,0.63-0.13,0.86-0.38c0.42-0.47,0.39-1.2-0.08-1.63l-44.77-40.38
					c-0.48-0.43-1.21-0.41-1.63,0.09c-0.42,0.47-0.39,1.2,0.08,1.63l44.77,40.38C162.91,496.58,163.18,496.68,163.46,496.68z"/>
			</g>
			<g>
				<path class="st7" d="M161.85,499.93c0.32,0,0.63-0.13,0.86-0.38c0.42-0.47,0.39-1.2-0.08-1.63l-46.22-41.7
					c-0.47-0.43-1.2-0.41-1.63,0.09c-0.42,0.47-0.39,1.2,0.08,1.63l46.22,41.7C161.3,499.83,161.57,499.93,161.85,499.93z"/>
			</g>
			<g>
				<path class="st7" d="M143.29,474.03c0.3,0,0.59-0.11,0.81-0.33l98.97-98.06c0.45-0.45,0.46-1.18,0.01-1.63
					c-0.45-0.46-1.18-0.45-1.63-0.01l-98.97,98.06c-0.45,0.45-0.46,1.18-0.01,1.63C142.7,473.91,143,474.03,143.29,474.03z"/>
			</g>
		</g>
		<g>
			<g>
				<path class="st3" d="M152.33,520.94l47.17,42.55l87.96-97.5c15.21-16.86,13.87-42.87-2.99-58.08
					c-9.19-8.29-23.36-7.56-31.64,1.63L152.33,520.94z"/>
				<path class="st3" d="M147.14,523.51l60.86,54.9c3.06-11.5,6.11-23.01,9.17-34.51c-16.36-13.48-32.71-26.96-49.07-40.45
					C161.11,510.14,154.12,516.83,147.14,523.51z"/>
			</g>
			<g>
				<path class="st7" d="M216.3,544.35c0.32,0,0.63-0.13,0.86-0.38c0.42-0.47,0.39-1.2-0.08-1.63l-44.76-40.38
					c-0.47-0.42-1.2-0.4-1.63,0.09c-0.42,0.47-0.39,1.2,0.08,1.63l44.76,40.38C215.75,544.25,216.02,544.35,216.3,544.35z"/>
			</g>
			<g>
				<path class="st7" d="M214.69,547.61c0.32,0,0.63-0.13,0.86-0.38c0.42-0.47,0.39-1.2-0.08-1.63l-46.22-41.7
					c-0.48-0.43-1.21-0.4-1.63,0.08c-0.42,0.47-0.39,1.2,0.08,1.63l46.22,41.7C214.14,547.51,214.41,547.61,214.69,547.61z"/>
			</g>
			<g>
				<path class="st7" d="M196.14,521.7c0.33,0,0.67-0.15,0.9-0.43l87.38-108.52c0.4-0.5,0.32-1.23-0.18-1.62
					c-0.49-0.39-1.22-0.32-1.62,0.17l-87.38,108.52c-0.4,0.5-0.32,1.23,0.18,1.62C195.62,521.62,195.88,521.7,196.14,521.7z"/>
			</g>
		</g>
		<path class="st6" d="M453.48,268.57l-84.35-76.09c29.01-24.34,64.17-40.75,101.85-47.36c2.34-0.46,4.63-0.86,6.97-1.23
			c6.97-1.23,13.19,4.38,12.69,11.44l-0.5,7.06C487.42,200.56,474.71,237.21,453.48,268.57z"/>
		<path class="st6" d="M294.63,310.33l-38.33-34.57l37.23-41.27c19.09-21.17,51.73-22.85,72.9-3.75L294.63,310.33z"/>
		<path class="st6" d="M343.89,354.77l38.33,34.57l37.23-41.27c19.1-21.17,17.42-53.81-3.75-72.9L343.89,354.77z"/>
		<g>
			<path class="st7" d="M130.04,442.05c0.31,0,0.63-0.13,0.86-0.38c0.42-0.47,0.39-1.2-0.08-1.63l-64.06-57.79
				c-0.47-0.42-1.2-0.41-1.63,0.09c-0.42,0.47-0.39,1.2,0.08,1.63l64.06,57.79C129.49,441.95,129.76,442.05,130.04,442.05z"/>
		</g>
		<g>
			<path class="st7" d="M297.61,593.2c0.32,0,0.63-0.13,0.86-0.38c0.42-0.47,0.39-1.2-0.08-1.63L234.97,534
				c-0.48-0.43-1.2-0.41-1.63,0.08c-0.42,0.47-0.39,1.2,0.08,1.63l63.41,57.2C297.06,593.1,297.33,593.2,297.61,593.2z"/>
		</g>
		<g>
			<path class="st7" d="M277.28,292.2c0.31,0,0.63-0.13,0.86-0.38l65.37-72.46c0.42-0.47,0.39-1.2-0.08-1.63s-1.2-0.41-1.63,0.09
				l-65.37,72.46c-0.42,0.47-0.39,1.2,0.08,1.63C276.73,292.1,277,292.2,277.28,292.2z"/>
		</g>
		<g>
			<path class="st7" d="M363.05,373.21c0.32,0,0.63-0.13,0.86-0.38l67.17-74.46c0.42-0.47,0.39-1.2-0.08-1.63
				c-0.47-0.43-1.2-0.4-1.63,0.09l-67.17,74.46c-0.42,0.47-0.39,1.2,0.08,1.63C362.5,373.11,362.77,373.21,363.05,373.21z"/>
		</g>
		<path class="st3" d="M346.54,268.54c-17.57,19.48-35.17,32.25-39.29,28.53c-4.13-3.72,6.77-22.54,24.34-42.02
			c17.57-19.48,35.17-32.25,39.3-28.53C375.01,230.25,364.11,249.06,346.54,268.54z"/>
		<path class="st3" d="M393.47,310.87c-17.57,19.48-35.17,32.25-39.29,28.53c-4.13-3.72,6.77-22.54,24.34-42.02
			c17.57-19.48,35.17-32.25,39.29-28.53C421.94,272.58,411.04,291.39,393.47,310.87z"/>
		<path class="st0" d="M382.31,269.11c-2.36,2.62-6.4,2.82-9.01,0.46c-2.62-2.36-2.83-6.4-0.46-9.01c2.36-2.62,6.4-2.82,9.01-0.46
			C384.47,262.46,384.67,266.49,382.31,269.11z"/>
		<path class="st0" d="M354.67,283.48c-0.18-3.52,2.53-6.52,6.04-6.7c3.52-0.18,6.52,2.53,6.7,6.04c0.18,3.52-2.52,6.52-6.04,6.7
			C357.86,289.71,354.86,287,354.67,283.48z"/>
		<g>
			<path class="st7" d="M127.78,444.56c0.31,0,0.63-0.13,0.86-0.38c0.42-0.47,0.39-1.2-0.08-1.63L66.9,386.94
				c-0.47-0.43-1.2-0.4-1.63,0.09c-0.42,0.47-0.39,1.2,0.08,1.63L127,444.26C127.23,444.46,127.5,444.56,127.78,444.56z"/>
		</g>
		<g>
			<path class="st7" d="M293.58,594.13c0.31,0,0.63-0.13,0.86-0.38c0.42-0.47,0.39-1.2-0.08-1.63l-61.65-55.61
				c-0.48-0.43-1.21-0.41-1.63,0.09c-0.42,0.47-0.39,1.2,0.08,1.63l61.65,55.61C293.03,594.03,293.3,594.13,293.58,594.13z"/>
		</g>
		<g>
			<path class="st7" d="M86.05,399.67c0.4,0,0.78-0.21,1-0.57c13.1-22.54,30.14-38.25,49.26-45.44
				c30.22-11.37,71.31-5.04,75.89-4.28c2.96,0.49,5.69,1.02,8.25,1.52c10.01,1.95,17.94,3.5,28.41,0.3
				c11.34-3.47,18.97-10.68,31.63-22.62c9.92-9.37,19.23-19.73,27.67-30.81c0.39-0.5,0.29-1.23-0.22-1.62
				c-0.51-0.39-1.23-0.29-1.62,0.22c-8.36,10.98-17.59,21.25-27.42,30.53c-13.79,13.01-20.34,18.9-30.71,22.08
				c-9.93,3.04-17.22,1.61-27.3-0.36c-2.59-0.5-5.33-1.04-8.32-1.54c-4.66-0.76-46.31-7.16-77.08,4.4
				c-19.62,7.38-37.07,23.44-50.45,46.44c-0.32,0.55-0.13,1.26,0.42,1.58C85.66,399.62,85.86,399.67,86.05,399.67z"/>
		</g>
		<g>
			<path class="st7" d="M276.63,571.59c0.23,0,0.48-0.07,0.68-0.22c21.51-15.65,35.69-34.65,41.02-54.94
				c8.39-31.97-2.3-72.6-3.55-77.12c-0.79-2.93-1.61-5.61-2.38-8.14c-2.99-9.82-5.14-16.91-3.14-27.09
				c2.09-10.65,7.28-17.76,18.81-32.82c8.18-10.69,17.45-20.93,27.56-30.41c0.46-0.44,0.49-1.17,0.05-1.63
				c-0.43-0.46-1.16-0.48-1.63-0.05c-10.19,9.58-19.55,19.9-27.81,30.69c-10.57,13.81-16.96,22.15-19.24,33.78
				c-2.11,10.74,0.24,18.44,3.21,28.2c0.77,2.51,1.58,5.18,2.37,8.08c1.23,4.47,11.78,44.54,3.53,75.93
				c-5.19,19.76-19.07,38.32-40.14,53.66c-0.51,0.37-0.63,1.1-0.25,1.61C275.93,571.42,276.28,571.59,276.63,571.59z"/>
		</g>
		<g>
			<path class="st7" d="M242.27,375.97c6.2-2.1,14.6-6.36,21.53-15.05c8.12-10.16,9.87-21.09,10.2-26.69
				c0.04-0.63-0.45-1.18-1.09-1.22c-0.63,0.03-1.18,0.45-1.22,1.09c-0.31,5.33-1.97,15.72-9.69,25.39
				c-6.59,8.26-14.58,12.31-20.11,14.25c-0.6,0.21-0.92,0.87-0.71,1.47C241.35,375.67,241.79,375.97,242.27,375.97z"/>
		</g>
		<g>
			<path class="st7" d="M284.34,413.92c0.52,0,0.99-0.36,1.12-0.88c1.37-5.7,4.58-14.06,12.11-21.47
				c8.8-8.66,18.97-11.39,24.25-12.24c0.63-0.1,1.06-0.69,0.95-1.32c-0.1-0.63-0.77-1.05-1.32-0.95
				c-5.55,0.9-16.24,3.77-25.52,12.88c-7.92,7.79-11.29,16.58-12.72,22.57c-0.15,0.62,0.23,1.24,0.85,1.39
				C284.16,413.91,284.25,413.92,284.34,413.92z"/>
		</g>
		
			<rect x="348.5" y="221.45" transform="matrix(0.7425 0.6698 -0.6698 0.7425 259.8307 -216.5859)" class="st6" width="126.28" height="16.45"/>
		<g>
			<path class="st7" d="M448.54,275.2c0.31,0,0.63-0.13,0.86-0.38c0.42-0.47,0.39-1.2-0.08-1.63l-84.35-76.09
				c-0.47-0.43-1.2-0.4-1.63,0.08c-0.42,0.47-0.39,1.2,0.08,1.63l84.35,76.09C447.99,275.1,448.26,275.2,448.54,275.2z"/>
		</g>
		<g>
			<path class="st7" d="M457.37,259.78c0.32,0,0.63-0.13,0.86-0.38c0.42-0.47,0.39-1.2-0.08-1.63L377.8,185.3
				c-0.48-0.42-1.21-0.4-1.63,0.09c-0.42,0.47-0.39,1.2,0.08,1.63l80.34,72.47C456.82,259.69,457.09,259.78,457.37,259.78z"/>
		</g>
		<g>
			<path class="st7" d="M457.09,268.97c0.32,0,0.63-0.13,0.86-0.38c0.42-0.47,0.39-1.2-0.08-1.63l-90.02-81.21
				c-0.48-0.42-1.21-0.4-1.63,0.08c-0.42,0.47-0.39,1.2,0.08,1.63l90.02,81.21C456.54,268.87,456.81,268.97,457.09,268.97z"/>
		</g>
	</g>
	<g>
		<path class="st8" d="M291.73,124.53v1.93c0,36.68-20.22,68.69-50.2,85.46c-7.72,4.27-15.85,7.52-24.59,9.55
			c-7.42,1.83-15.14,2.74-22.96,2.74c-36.28,0-67.88-19.71-84.75-48.88c-8.33-14.43-13.11-31.09-13.11-48.88
			c0-5.18,0.41-10.26,1.22-15.24c6.4-41.15,38.51-73.77,79.36-80.99c5.59-1.12,11.38-1.63,17.27-1.63c11.68,0,22.76,2.03,33.13,5.69
			c29.06,10.57,51.82,34.45,60.66,64.32C290.1,106.85,291.52,115.49,291.73,124.53z"/>
		<path class="st9" d="M183.71,50.45c-1.12,10.87-11.08,10.47-21.75,32.41c-7.52,15.55-8.84,28.76-16.16,29.88
			c-5.69,0.81-9.45-6.3-14.33-4.47c-5.49,2.03-3.35,12.09-7.32,14.33c-3.86,2.13-15.24-2.34-26.83-11.38
			c6.4-41.15,38.51-73.77,79.36-80.99C181.68,37.04,184.32,44.25,183.71,50.45z"/>
		<path class="st9" d="M287.76,98.62c-7.82,7.52-18.6,12.19-30.38,12.19c-24.49,0-44.31-19.81-44.31-44.3
			c0-12.7,5.39-24.18,14.02-32.21C256.16,44.86,278.92,68.74,287.76,98.62z"/>
		<path class="st9" d="M229.93,137.43c-1.28,3.82-2.49,2.95-11.75,14.03c-7.51,8.98-9.73,13.15-12.54,12.58
			c-3.4-0.69-2.59-7.27-8.73-10.99c-3.1-1.88-4.18-0.72-7.3-2.54c-4.83-2.8-6.58-8.06-8.26-13.08c-2.35-7.03-4.1-12.29-1.59-18.04
			c1.94-4.44,5.94-8.09,10.48-9.53c4.37-1.38,6,0.31,15.4,0.95c10.4,0.71,10.92-1.19,14.45,0.32
			C228.13,114.58,233.16,127.82,229.93,137.43z"/>
		<path class="st9" d="M216.94,221.47c-7.42,1.83-15.14,2.74-22.96,2.74c-36.28,0-67.88-19.71-84.75-48.88
			c9.04-15.75,23.27-25.91,28.76-23.88c4.37,1.63,3.15,10.77,8.74,12.6c7.32,2.34,13.52-11.68,20.42-10.36
			c11.48,2.13,4.27,42.88,24.49,55.28c12.5,7.62,26.22-1.22,28.25,3.15C220.7,213.85,219.58,217.2,216.94,221.47z"/>
		<path class="st9" d="M291.73,124.53v1.93c0,36.68-20.22,68.69-50.2,85.46c-2.85-2.13-5.49-4.67-7.82-7.82
			c-5.79-8.13-11.08-22.05-5.79-32.01c2.85-5.39,6-4.07,12.6-11.58c8.43-9.55,6.81-15.65,13.52-23.78
			c7.11-8.43,16.97-11.79,21.03-12.7C280.14,122.8,285.83,123.11,291.73,124.53z"/>
	</g>
	<g>
		<g>
			<path class="st6" d="M422.9,43.57H411.5c0.92-1.13,1.86-2.49,2.72-4.09c2.52-4.68,3.11-9.17,3.22-12.09
				c0,2.81,0.41,7.25,2.77,11.94C421.05,41,421.99,42.41,422.9,43.57z"/>
			<path class="st6" d="M422.9,43.42H411.5c0.92,1.13,1.86,2.49,2.72,4.09c2.52,4.68,3.11,9.17,3.22,12.09
				c0-2.81,0.41-7.25,2.77-11.94C421.05,45.98,421.99,44.58,422.9,43.42z"/>
		</g>
		<g>
			<path class="st6" d="M417.26,37.72v11.41c-0.85-0.92-1.86-1.86-3.06-2.72c-3.5-2.52-6.87-3.11-9.05-3.22
				c2.1,0,5.43-0.41,8.94-2.77C415.33,39.56,416.39,38.62,417.26,37.72z"/>
			<path class="st6" d="M417.14,37.72v11.41c0.85-0.92,1.86-1.86,3.06-2.72c3.5-2.52,6.87-3.11,9.05-3.22
				c-2.1,0-5.43-0.41-8.94-2.77C419.06,39.56,418.01,38.62,417.14,37.72z"/>
		</g>
	</g>
	<g>
		<g>
			<path class="st6" d="M539.24,208.08h-14.2c1.14-1.41,2.31-3.1,3.39-5.09c3.14-5.82,3.87-11.41,4.01-15.05
				c0,3.49,0.51,9.03,3.45,14.86C536.94,204.88,538.11,206.63,539.24,208.08z"/>
			<path class="st6" d="M539.24,207.89h-14.2c1.14,1.41,2.31,3.1,3.39,5.09c3.14,5.82,3.87,11.41,4.01,15.05
				c0-3.49,0.51-9.03,3.45-14.86C536.94,211.08,538.11,209.33,539.24,207.89z"/>
		</g>
		<g>
			<path class="st6" d="M532.21,200.79v14.2c-1.05-1.14-2.32-2.31-3.81-3.39c-4.36-3.14-8.55-3.87-11.27-4.01
				c2.62,0,6.76-0.51,11.13-3.45C529.82,203.09,531.13,201.92,532.21,200.79z"/>
			<path class="st6" d="M532.07,200.79v14.2c1.06-1.14,2.32-2.31,3.81-3.39c4.36-3.14,8.55-3.87,11.27-4.01
				c-2.62,0-6.76-0.51-11.13-3.45C534.46,203.09,533.15,201.92,532.07,200.79z"/>
		</g>
	</g>
	<g>
		<g>
			<path class="st6" d="M585.67,123.22h-14.2c1.14-1.41,2.31-3.1,3.39-5.09c3.14-5.82,3.87-11.41,4.01-15.05
				c0,3.49,0.51,9.03,3.45,14.86C583.37,120.02,584.54,121.78,585.67,123.22z"/>
			<path class="st6" d="M585.67,123.03h-14.2c1.14,1.41,2.31,3.1,3.39,5.09c3.14,5.82,3.87,11.41,4.01,15.05
				c0-3.49,0.51-9.03,3.45-14.86C583.37,126.22,584.54,124.47,585.67,123.03z"/>
		</g>
		<g>
			<path class="st6" d="M578.64,115.93v14.2c-1.05-1.14-2.32-2.31-3.81-3.39c-4.36-3.14-8.55-3.87-11.27-4.01
				c2.62,0,6.76-0.51,11.13-3.45C576.25,118.23,577.56,117.06,578.64,115.93z"/>
			<path class="st6" d="M578.5,115.93v14.2c1.06-1.14,2.32-2.31,3.81-3.39c4.36-3.14,8.55-3.87,11.27-4.01
				c-2.62,0-6.76-0.51-11.13-3.45C580.89,118.23,579.58,117.06,578.5,115.93z"/>
		</g>
	</g>
	<g>
		<g>
			<path class="st6" d="M130.94,273.68h-14.19c1.14-1.41,2.31-3.1,3.39-5.09c3.14-5.82,3.87-11.41,4.01-15.05
				c0,3.49,0.51,9.03,3.45,14.86C128.64,270.48,129.81,272.23,130.94,273.68z"/>
			<path class="st6" d="M130.94,273.49h-14.19c1.14,1.41,2.31,3.1,3.39,5.09c3.14,5.82,3.87,11.41,4.01,15.05
				c0-3.49,0.51-9.03,3.45-14.86C128.64,276.68,129.81,274.93,130.94,273.49z"/>
		</g>
		<g>
			<path class="st6" d="M123.91,266.39v14.2c-1.06-1.14-2.32-2.31-3.81-3.39c-4.36-3.14-8.55-3.87-11.27-4.01
				c2.62,0,6.76-0.51,11.13-3.45C121.52,268.69,122.83,267.52,123.91,266.39z"/>
			<path class="st6" d="M123.77,266.39v14.2c1.06-1.14,2.32-2.31,3.81-3.39c4.36-3.14,8.55-3.87,11.27-4.01
				c-2.62,0-6.76-0.51-11.13-3.45C126.16,268.69,124.85,267.52,123.77,266.39z"/>
		</g>
	</g>
	<g>
		<g>
			<path class="st6" d="M382.38,463.55h-14.2c1.14-1.41,2.31-3.1,3.39-5.09c3.14-5.82,3.87-11.41,4.01-15.05
				c0,3.49,0.51,9.03,3.45,14.86C380.07,460.35,381.25,462.1,382.38,463.55z"/>
			<path class="st6" d="M382.38,463.36h-14.2c1.14,1.41,2.31,3.1,3.39,5.09c3.14,5.82,3.87,11.41,4.01,15.05
				c0-3.49,0.51-9.03,3.45-14.86C380.07,466.55,381.25,464.8,382.38,463.36z"/>
		</g>
		<g>
			<path class="st6" d="M375.35,456.26v14.2c-1.06-1.14-2.32-2.31-3.81-3.39c-4.36-3.14-8.55-3.87-11.27-4.01
				c2.62,0,6.76-0.51,11.13-3.45C372.96,458.56,374.27,457.39,375.35,456.26z"/>
			<path class="st6" d="M375.21,456.26v14.2c1.05-1.14,2.32-2.31,3.81-3.39c4.36-3.14,8.55-3.87,11.27-4.01
				c-2.62,0-6.76-0.51-11.13-3.45C377.6,458.56,376.29,457.39,375.21,456.26z"/>
		</g>
	</g>
	<g>
		<g>
			<path class="st6" d="M401.75,510.95h-11.43c0.92-1.13,1.86-2.49,2.73-4.1c2.53-4.69,3.12-9.19,3.23-12.11
				c0,2.81,0.41,7.27,2.78,11.96C399.9,508.38,400.84,509.79,401.75,510.95z"/>
			<path class="st6" d="M401.75,510.8h-11.43c0.92,1.13,1.86,2.49,2.73,4.1c2.53,4.69,3.12,9.19,3.23,12.11
				c0-2.81,0.41-7.27,2.78-11.96C399.9,513.37,400.84,511.96,401.75,510.8z"/>
		</g>
		<g>
			<path class="st6" d="M396.09,505.08v11.43c-0.85-0.92-1.87-1.86-3.07-2.73c-3.51-2.53-6.88-3.12-9.07-3.23
				c2.11,0,5.44-0.41,8.96-2.78C394.17,506.94,395.22,505.99,396.09,505.08z"/>
			<path class="st6" d="M395.98,505.08v11.43c0.85-0.92,1.87-1.86,3.07-2.73c3.51-2.53,6.88-3.12,9.07-3.23
				c-2.11,0-5.44-0.41-8.96-2.78C397.9,506.94,396.85,505.99,395.98,505.08z"/>
		</g>
	</g>
	<g>
		<g>
			<path class="st6" d="M164.72,286.65h-8.46c0.68-0.84,1.38-1.85,2.02-3.03c1.87-3.47,2.31-6.8,2.39-8.96
				c0,2.08,0.3,5.38,2.06,8.85C163.35,284.75,164.05,285.79,164.72,286.65z"/>
			<path class="st6" d="M164.72,286.54h-8.46c0.68,0.84,1.38,1.85,2.02,3.03c1.87,3.47,2.31,6.8,2.39,8.96
				c0-2.08,0.3-5.38,2.06-8.85C163.35,288.44,164.05,287.4,164.72,286.54z"/>
		</g>
		<g>
			<path class="st6" d="M160.54,282.31v8.46c-0.63-0.68-1.38-1.38-2.27-2.02c-2.6-1.87-5.09-2.31-6.71-2.39
				c1.56,0,4.03-0.3,6.63-2.05C159.11,283.68,159.89,282.98,160.54,282.31z"/>
			<path class="st6" d="M160.45,282.31v8.46c0.63-0.68,1.38-1.38,2.27-2.02c2.6-1.87,5.09-2.31,6.71-2.39
				c-1.56,0-4.03-0.3-6.63-2.05C161.88,283.68,161.1,282.98,160.45,282.31z"/>
		</g>
	</g>
	<g>
		<g>
			<path class="st6" d="M504.7,90.12h-14.2c1.14-1.41,2.31-3.1,3.39-5.09c3.14-5.82,3.87-11.41,4.01-15.05
				c0,3.49,0.51,9.03,3.45,14.86C502.4,86.93,503.57,88.68,504.7,90.12z"/>
			<path class="st6" d="M504.7,89.93h-14.2c1.14,1.41,2.31,3.1,3.39,5.09c3.14,5.82,3.87,11.41,4.01,15.05
				c0-3.49,0.51-9.03,3.45-14.86C502.4,93.13,503.57,91.38,504.7,89.93z"/>
		</g>
		<g>
			<path class="st6" d="M497.68,82.83v14.2c-1.06-1.14-2.32-2.31-3.81-3.39c-4.36-3.14-8.55-3.87-11.27-4.01
				c2.62,0,6.76-0.51,11.13-3.45C495.28,85.14,496.6,83.96,497.68,82.83z"/>
			<path class="st6" d="M497.53,82.83v14.2c1.05-1.14,2.32-2.31,3.81-3.39c4.36-3.14,8.55-3.87,11.27-4.01
				c-2.62,0-6.76-0.51-11.13-3.45C499.93,85.14,498.61,83.96,497.53,82.83z"/>
		</g>
	</g>
	<g>
		<g>
			<path class="st6" d="M438.41,99.01h-8.4c0.67-0.83,1.37-1.83,2-3.01c1.86-3.45,2.29-6.75,2.37-8.9c0,2.07,0.3,5.34,2.04,8.79
				C437.05,97.12,437.74,98.15,438.41,99.01z"/>
			<path class="st6" d="M438.41,98.9h-8.4c0.67,0.83,1.37,1.83,2,3.01c1.86,3.45,2.29,6.75,2.37,8.9c0-2.07,0.3-5.34,2.04-8.79
				C437.05,100.79,437.74,99.75,438.41,98.9z"/>
		</g>
		<g>
			<path class="st6" d="M434.25,94.7v8.4c-0.62-0.67-1.37-1.37-2.25-2c-2.58-1.86-5.06-2.29-6.67-2.37c1.55,0,4-0.3,6.58-2.04
				C432.84,96.06,433.61,95.36,434.25,94.7z"/>
			<path class="st6" d="M434.17,94.7v8.4c0.62-0.67,1.37-1.37,2.26-2c2.58-1.86,5.06-2.29,6.67-2.37c-1.55,0-4-0.3-6.58-2.04
				C435.58,96.06,434.81,95.36,434.17,94.7z"/>
		</g>
	</g>
	<circle class="st6" cx="138.41" cy="231.61" r="4.39"/>
	<circle class="st6" cx="116.75" cy="226.94" r="2.73"/>
	<circle class="st6" cx="114.3" cy="239.14" r="3.15"/>
	<path class="st6" d="M104.33,249.04c0,1.27-1.03,2.3-2.3,2.3c-1.27,0-2.3-1.03-2.3-2.3c0-1.27,1.03-2.3,2.3-2.3
		C103.3,246.73,104.33,247.77,104.33,249.04z"/>
	<circle class="st6" cx="244.26" cy="243.67" r="7.67"/>
	<path class="st6" d="M226.89,245.66c0,1.86-1.51,3.37-3.37,3.37c-1.86,0-3.37-1.51-3.37-3.37c0-1.86,1.51-3.37,3.37-3.37
		C225.38,242.29,226.89,243.8,226.89,245.66z"/>
	<path class="st6" d="M216.72,254.9c0,1.97-1.59,3.56-3.56,3.56c-1.97,0-3.56-1.59-3.56-3.56c0-1.97,1.59-3.56,3.56-3.56
		C215.12,251.34,216.72,252.93,216.72,254.9z"/>
	<path class="st6" d="M321.38,641.98c0,0.99-0.81,1.8-1.8,1.8s-1.8-0.81-1.8-1.8c0-0.99,0.81-1.8,1.8-1.8
		S321.38,640.98,321.38,641.98z"/>
	<path class="st6" d="M312.91,634.14c0,0.76-0.62,1.38-1.38,1.38c-0.76,0-1.38-0.62-1.38-1.38c0-0.76,0.62-1.38,1.38-1.38
		C312.29,632.77,312.91,633.38,312.91,634.14z"/>
	<path class="st6" d="M302.85,641.39c0,0.67-0.54,1.22-1.22,1.22c-0.67,0-1.22-0.54-1.22-1.22c0-0.67,0.54-1.22,1.22-1.22
		C302.3,640.18,302.85,640.72,302.85,641.39z"/>
	<path class="st6" d="M297.88,622.18c0,1.52-1.23,2.75-2.75,2.75c-1.52,0-2.75-1.23-2.75-2.75c0-1.52,1.23-2.75,2.75-2.75
		C296.65,619.43,297.88,620.66,297.88,622.18z"/>
	<path class="st6" d="M285.6,626.42c0,3.27-2.65,5.93-5.93,5.93c-3.27,0-5.93-2.65-5.93-5.93c0-3.27,2.65-5.93,5.93-5.93
		C282.95,620.49,285.6,623.14,285.6,626.42z"/>
	<path class="st6" d="M363.09,639.65c0,2.28-1.85,4.13-4.13,4.13c-2.28,0-4.13-1.85-4.13-4.13c0-2.28,1.85-4.13,4.13-4.13
		C361.24,635.52,363.09,637.37,363.09,639.65z"/>
	<path class="st6" d="M382.38,559.93c0,1.94-1.57,3.51-3.51,3.51s-3.51-1.57-3.51-3.51s1.57-3.51,3.51-3.51
		S382.38,557.99,382.38,559.93z"/>
	<path class="st6" d="M392.72,551.16c0,1.11-0.9,2.01-2.01,2.01c-1.11,0-2.01-0.9-2.01-2.01s0.9-2.01,2.01-2.01
		C391.82,549.15,392.72,550.05,392.72,551.16z"/>
	<path class="st6" d="M382.38,540.91c0,0.59-0.48,1.07-1.07,1.07c-0.59,0-1.07-0.48-1.07-1.07c0-0.59,0.48-1.07,1.07-1.07
		C381.9,539.83,382.38,540.31,382.38,540.91z"/>
	<circle class="st6" cx="364.99" cy="542.16" r="5.08"/>
	<circle class="st6" cx="419.96" cy="444.71" r="3.32"/>
	<path class="st6" d="M408.7,439.49c0,1.4-1.14,2.54-2.54,2.54s-2.54-1.14-2.54-2.54s1.14-2.54,2.54-2.54S408.7,438.08,408.7,439.49
		z"/>
	<path class="st6" d="M412.57,460.73c0,2.47-2,4.47-4.47,4.47c-2.47,0-4.47-2-4.47-4.47c0-2.47,2-4.47,4.47-4.47
		C410.57,456.26,412.57,458.26,412.57,460.73z"/>
	<path class="st6" d="M434.32,462.97c0,1.24-1,2.24-2.24,2.24c-1.24,0-2.24-1-2.24-2.24s1-2.24,2.24-2.24
		C433.32,460.73,434.32,461.74,434.32,462.97z"/>
	<path class="st6" d="M528.31,440.18c0,1.79-1.45,3.23-3.23,3.23c-1.79,0-3.23-1.45-3.23-3.23s1.45-3.23,3.23-3.23
		C526.86,436.95,528.31,438.39,528.31,440.18z"/>
	<path class="st6" d="M516.67,435.36c0,1.05-0.85,1.91-1.91,1.91c-1.05,0-1.91-0.85-1.91-1.91c0-1.05,0.85-1.91,1.91-1.91
		C515.82,433.45,516.67,434.31,516.67,435.36z"/>
	<path class="st6" d="M508.82,442.93c0,1.2-0.98,2.18-2.18,2.18c-1.2,0-2.18-0.98-2.18-2.18s0.98-2.18,2.18-2.18
		C507.84,440.75,508.82,441.73,508.82,442.93z"/>
	<path class="st6" d="M498.46,432.01c0,2.9-2.35,5.25-5.25,5.25c-2.9,0-5.25-2.35-5.25-5.25c0-2.9,2.35-5.25,5.25-5.25
		C496.11,426.76,498.46,429.11,498.46,432.01z"/>
	<circle class="st6" cx="594.36" cy="482.36" r="2.65"/>
	<circle class="st6" cx="586" cy="474.42" r="2.33"/>
	<path class="st6" d="M572.13,465.26c0,1.72-1.4,3.12-3.12,3.12s-3.12-1.4-3.12-3.12s1.4-3.12,3.12-3.12
		S572.13,463.54,572.13,465.26z"/>
	<path class="st6" d="M633.17,468.93c0,3.03-2.46,5.48-5.48,5.48c-3.03,0-5.48-2.45-5.48-5.48c0-3.03,2.45-5.48,5.48-5.48
		C630.71,463.45,633.17,465.91,633.17,468.93z"/>
	<g>
		<path class="st8" d="M511.59,355.23c0,46.86,37.99,84.84,84.84,84.84c46.86,0,84.84-37.99,84.84-84.84
			c0-46.86-37.99-84.84-84.84-84.84C549.58,270.39,511.59,308.37,511.59,355.23z"/>
		<path class="st9" d="M461.89,360.48c0,11.34,60.24,20.53,134.54,20.53s134.54-9.19,134.54-20.53c0-11.34-60.24-20.53-134.54-20.53
			S461.89,349.14,461.89,360.48z"/>
		<path class="st8" d="M511.59,348.52c0,11.91,37.99,21.56,84.84,21.56c46.86,0,84.84-9.65,84.84-21.56
			c0-11.91-37.99-21.56-84.84-21.56C549.58,326.96,511.59,336.61,511.59,348.52z"/>
	</g>
</g>
</svg>
